<svg aria-hidden="true" xmlns="http://www.w3.org/2000/svg" viewBox="0 0 532.2 480.5">
  <g fill="currentColor">
    <path d="M7.4 480.5a7.4 7.4 0 1 0-7.4-7.4 7.4 7.4 0 0 0 7.4 7.4"/>
    <path d="M34.7 480.5a7.4 7.4 0 1 0-7.5-7.4 7.4 7.4 0 0 0 7.5 7.4"/>
    <path d="M34.7 456a7.4 7.4 0 1 0-7.5-7.4 7.4 7.4 0 0 0 7.5 7.4"/>
    <path d="M61.9 480.5a7.4 7.4 0 1 0-7.4-7.4 7.4 7.4 0 0 0 7.4 7.4"/>
    <path d="M61.9 456a7.4 7.4 0 1 0-7.4-7.4 7.4 7.4 0 0 0 7.4 7.4"/>
    <path d="M61.9 431.5a7.4 7.4 0 1 0-7.4-7.4 7.4 7.4 0 0 0 7.4 7.4"/>
    <path d="M89.1 480.5a7.4 7.4 0 1 0-7.4-7.4 7.4 7.4 0 0 0 7.4 7.4"/>
    <path d="M89.1 456a7.4 7.4 0 1 0-7.4-7.4A7.4 7.4 0 0 0 89 456"/>
    <path d="M89.1 431.5a7.4 7.4 0 1 0-7.4-7.4 7.4 7.4 0 0 0 7.4 7.4"/>
    <path d="M89.1 407a7.4 7.4 0 1 0-7.4-7.4A7.4 7.4 0 0 0 89 407"/>
    <path d="M116.3 480.5a7.4 7.4 0 1 0-7.4-7.4 7.4 7.4 0 0 0 7.4 7.4"/>
    <path d="M116.3 456a7.4 7.4 0 1 0-7.4-7.4 7.4 7.4 0 0 0 7.4 7.4"/>
    <path d="M116.3 431.5a7.4 7.4 0 1 0-7.4-7.4 7.4 7.4 0 0 0 7.4 7.4"/>
    <path d="M116.3 407a7.4 7.4 0 1 0-7.4-7.4 7.4 7.4 0 0 0 7.4 7.4"/>
    <path d="M116.3 382.5a7.4 7.4 0 1 0-7.4-7.4 7.4 7.4 0 0 0 7.4 7.4"/>
    <path d="M143.6 480.5a7.4 7.4 0 1 0-7.5-7.4 7.4 7.4 0 0 0 7.5 7.4"/>
    <path d="M143.6 456a7.4 7.4 0 1 0-7.5-7.4 7.4 7.4 0 0 0 7.5 7.4"/>
    <path d="M143.6 431.5a7.4 7.4 0 1 0-7.5-7.4 7.4 7.4 0 0 0 7.5 7.4"/>
    <path d="M143.6 407a7.4 7.4 0 1 0-7.5-7.4 7.4 7.4 0 0 0 7.5 7.4"/>
    <path d="M143.6 382.5a7.4 7.4 0 1 0-7.5-7.4 7.4 7.4 0 0 0 7.5 7.4"/>
    <path d="M143.6 358a7.4 7.4 0 1 0-7.5-7.4 7.4 7.4 0 0 0 7.5 7.4"/>
    <path d="M170.8 480.5a7.4 7.4 0 1 0-7.4-7.4 7.4 7.4 0 0 0 7.4 7.4"/>
    <path d="M170.8 456a7.4 7.4 0 1 0-7.4-7.4 7.4 7.4 0 0 0 7.4 7.4"/>
    <path d="M170.8 431.5a7.4 7.4 0 1 0-7.4-7.4 7.4 7.4 0 0 0 7.4 7.4"/>
    <path d="M170.8 407a7.4 7.4 0 1 0-7.4-7.4 7.4 7.4 0 0 0 7.4 7.4"/>
    <path d="M170.8 382.5a7.4 7.4 0 1 0-7.4-7.4 7.4 7.4 0 0 0 7.4 7.4"/>
    <path d="M170.8 358a7.4 7.4 0 1 0-7.4-7.4 7.4 7.4 0 0 0 7.4 7.4"/>
    <path d="M170.8 333.5a7.4 7.4 0 1 0-7.4-7.5 7.4 7.4 0 0 0 7.4 7.5"/>
    <path d="M198 480.5a7.4 7.4 0 1 0-7.4-7.4 7.4 7.4 0 0 0 7.4 7.4"/>
    <path d="M198 456a7.4 7.4 0 1 0-7.4-7.4 7.4 7.4 0 0 0 7.4 7.4"/>
    <path d="M198 431.5a7.4 7.4 0 1 0-7.4-7.4 7.4 7.4 0 0 0 7.4 7.4"/>
    <path d="M198 407a7.4 7.4 0 1 0-7.4-7.4 7.4 7.4 0 0 0 7.4 7.4"/>
    <path d="M198 382.5a7.4 7.4 0 1 0-7.4-7.4 7.4 7.4 0 0 0 7.4 7.4"/>
    <path d="M198 358a7.4 7.4 0 1 0-7.4-7.4 7.4 7.4 0 0 0 7.4 7.4"/>
    <path d="M198 333.5a7.4 7.4 0 1 0-7.4-7.5 7.4 7.4 0 0 0 7.4 7.5"/>
    <path d="M198 309a7.4 7.4 0 1 0-7.4-7.5 7.4 7.4 0 0 0 7.4 7.5"/>
    <path d="M225.2 480.5a7.4 7.4 0 1 0-7.4-7.4 7.4 7.4 0 0 0 7.4 7.4"/>
    <path d="M225.2 456a7.4 7.4 0 1 0-7.4-7.4 7.4 7.4 0 0 0 7.4 7.4"/>
    <path d="M225.2 431.5a7.4 7.4 0 1 0-7.4-7.4 7.4 7.4 0 0 0 7.4 7.4"/>
    <path d="M225.2 407a7.4 7.4 0 1 0-7.4-7.4 7.4 7.4 0 0 0 7.4 7.4"/>
    <path d="M225.2 382.5a7.4 7.4 0 1 0-7.4-7.4 7.4 7.4 0 0 0 7.4 7.4"/>
    <path d="M225.2 358a7.4 7.4 0 1 0-7.4-7.4 7.4 7.4 0 0 0 7.4 7.4"/>
    <path d="M225.2 333.5a7.4 7.4 0 1 0-7.4-7.5 7.4 7.4 0 0 0 7.4 7.5"/>
    <path d="M225.2 309a7.4 7.4 0 1 0-7.4-7.5 7.4 7.4 0 0 0 7.4 7.5"/>
    <path d="M225.2 284.4a7.4 7.4 0 1 0-7.4-7.4 7.4 7.4 0 0 0 7.4 7.4"/>
    <path d="M252.5 480.5a7.4 7.4 0 1 0-7.5-7.4 7.4 7.4 0 0 0 7.5 7.4"/>
    <path d="M252.5 456a7.4 7.4 0 1 0-7.5-7.4 7.4 7.4 0 0 0 7.5 7.4"/>
    <path d="M252.5 431.5a7.4 7.4 0 1 0-7.5-7.4 7.4 7.4 0 0 0 7.5 7.4"/>
    <path d="M252.5 407a7.4 7.4 0 1 0-7.5-7.4 7.4 7.4 0 0 0 7.5 7.4"/>
    <path d="M252.5 382.5a7.4 7.4 0 1 0-7.5-7.4 7.4 7.4 0 0 0 7.5 7.4"/>
    <path d="M252.5 358a7.4 7.4 0 1 0-7.5-7.4 7.4 7.4 0 0 0 7.5 7.4"/>
    <path d="M252.5 333.5a7.4 7.4 0 1 0-7.5-7.5 7.4 7.4 0 0 0 7.5 7.5"/>
    <path d="M252.5 309a7.4 7.4 0 1 0-7.5-7.5 7.4 7.4 0 0 0 7.5 7.5"/>
    <path d="M252.5 284.4a7.4 7.4 0 1 0-7.5-7.4 7.4 7.4 0 0 0 7.5 7.4"/>
    <path d="M252.5 260a7.4 7.4 0 1 0-7.5-7.5 7.4 7.4 0 0 0 7.5 7.4"/>
    <path d="M279.7 480.5a7.4 7.4 0 1 0-7.4-7.4 7.4 7.4 0 0 0 7.4 7.4"/>
    <path d="M279.7 456a7.4 7.4 0 1 0-7.4-7.4 7.4 7.4 0 0 0 7.4 7.4"/>
    <path d="M279.7 431.5a7.4 7.4 0 1 0-7.4-7.4 7.4 7.4 0 0 0 7.4 7.4"/>
    <path d="M279.7 407a7.4 7.4 0 1 0-7.4-7.4 7.4 7.4 0 0 0 7.4 7.4"/>
    <path d="M279.7 382.5a7.4 7.4 0 1 0-7.4-7.4 7.4 7.4 0 0 0 7.4 7.4"/>
    <path d="M279.7 358a7.4 7.4 0 1 0-7.4-7.4 7.4 7.4 0 0 0 7.4 7.4"/>
    <path d="M279.7 333.5a7.4 7.4 0 1 0-7.4-7.5 7.4 7.4 0 0 0 7.4 7.5"/>
    <path d="M279.7 309a7.4 7.4 0 1 0-7.4-7.5 7.4 7.4 0 0 0 7.4 7.5"/>
    <path d="M279.7 284.4a7.4 7.4 0 1 0-7.4-7.4 7.4 7.4 0 0 0 7.4 7.4"/>
    <path d="M279.7 260a7.4 7.4 0 1 0-7.4-7.5 7.4 7.4 0 0 0 7.4 7.4"/>
    <path d="M279.7 235.4a7.4 7.4 0 1 0-7.4-7.4 7.4 7.4 0 0 0 7.4 7.4"/>
    <path d="M307 480.5a7.4 7.4 0 1 0-7.5-7.4 7.4 7.4 0 0 0 7.4 7.4"/>
    <path d="M307 456a7.4 7.4 0 1 0-7.5-7.4 7.4 7.4 0 0 0 7.4 7.4"/>
    <path d="M307 431.5a7.4 7.4 0 1 0-7.5-7.4 7.4 7.4 0 0 0 7.4 7.4"/>
    <path d="M307 407a7.4 7.4 0 1 0-7.5-7.4 7.4 7.4 0 0 0 7.4 7.4"/>
    <path d="M307 382.5a7.4 7.4 0 1 0-7.5-7.4 7.4 7.4 0 0 0 7.4 7.4"/>
    <path d="M307 358a7.4 7.4 0 1 0-7.5-7.4 7.4 7.4 0 0 0 7.4 7.4"/>
    <path d="M307 333.5a7.4 7.4 0 1 0-7.5-7.5 7.4 7.4 0 0 0 7.4 7.5"/>
    <path d="M307 309a7.4 7.4 0 1 0-7.5-7.5 7.4 7.4 0 0 0 7.4 7.5"/>
    <path d="M307 284.4a7.4 7.4 0 1 0-7.5-7.4 7.4 7.4 0 0 0 7.4 7.4"/>
    <path d="M307 260a7.4 7.4 0 1 0-7.5-7.5 7.4 7.4 0 0 0 7.4 7.4"/>
    <path d="M307 235.4a7.4 7.4 0 1 0-7.5-7.4 7.4 7.4 0 0 0 7.4 7.4"/>
    <path d="M307 211a7.4 7.4 0 1 0-7.5-7.5 7.4 7.4 0 0 0 7.4 7.4"/>
    <path d="M334.2 480.5a7.4 7.4 0 1 0-7.5-7.4 7.4 7.4 0 0 0 7.5 7.4"/>
    <path d="M334.2 456a7.4 7.4 0 1 0-7.5-7.4 7.4 7.4 0 0 0 7.5 7.4"/>
    <path d="M334.2 431.5a7.4 7.4 0 1 0-7.5-7.4 7.4 7.4 0 0 0 7.5 7.4"/>
    <path d="M334.2 407a7.4 7.4 0 1 0-7.5-7.4 7.4 7.4 0 0 0 7.5 7.4"/>
    <path d="M334.2 382.5a7.4 7.4 0 1 0-7.5-7.4 7.4 7.4 0 0 0 7.5 7.4"/>
    <path d="M334.2 358a7.4 7.4 0 1 0-7.5-7.4 7.4 7.4 0 0 0 7.5 7.4"/>
    <path d="M334.2 333.5a7.4 7.4 0 1 0-7.5-7.5 7.4 7.4 0 0 0 7.5 7.5"/>
    <path d="M334.2 309a7.4 7.4 0 1 0-7.5-7.5 7.4 7.4 0 0 0 7.5 7.5"/>
    <path d="M334.2 284.4a7.4 7.4 0 1 0-7.5-7.4 7.4 7.4 0 0 0 7.5 7.4"/>
    <path d="M334.2 260a7.4 7.4 0 1 0-7.5-7.5 7.4 7.4 0 0 0 7.5 7.4"/>
    <path d="M334.2 235.4a7.4 7.4 0 1 0-7.5-7.4 7.4 7.4 0 0 0 7.5 7.4"/>
    <path d="M334.2 211a7.4 7.4 0 1 0-7.5-7.5 7.4 7.4 0 0 0 7.5 7.4"/>
    <path d="M334.2 186.4a7.4 7.4 0 1 0-7.5-7.4 7.4 7.4 0 0 0 7.5 7.4"/>
    <path d="M361.4 480.5a7.4 7.4 0 1 0-7.4-7.4 7.4 7.4 0 0 0 7.4 7.4"/>
    <path d="M361.4 456a7.4 7.4 0 1 0-7.4-7.4 7.4 7.4 0 0 0 7.4 7.4"/>
    <path d="M361.4 431.5a7.4 7.4 0 1 0-7.4-7.4 7.4 7.4 0 0 0 7.4 7.4"/>
    <path d="M361.4 407a7.4 7.4 0 1 0-7.4-7.4 7.4 7.4 0 0 0 7.4 7.4"/>
    <path d="M361.4 382.5a7.4 7.4 0 1 0-7.4-7.4 7.4 7.4 0 0 0 7.4 7.4"/>
    <path d="M361.4 358a7.4 7.4 0 1 0-7.4-7.4 7.4 7.4 0 0 0 7.4 7.4"/>
    <path d="M361.4 333.5a7.4 7.4 0 1 0-7.4-7.5 7.4 7.4 0 0 0 7.4 7.5"/>
    <path d="M361.4 309a7.4 7.4 0 1 0-7.4-7.5 7.4 7.4 0 0 0 7.4 7.5"/>
    <path d="M361.4 284.4a7.4 7.4 0 1 0-7.4-7.4 7.4 7.4 0 0 0 7.4 7.4"/>
    <path d="M361.4 260a7.4 7.4 0 1 0-7.4-7.5 7.4 7.4 0 0 0 7.4 7.4"/>
    <path d="M361.4 235.4a7.4 7.4 0 1 0-7.4-7.4 7.4 7.4 0 0 0 7.4 7.4"/>
    <path d="M361.4 211a7.4 7.4 0 1 0-7.4-7.5 7.4 7.4 0 0 0 7.4 7.4"/>
    <path d="M361.4 186.4a7.4 7.4 0 1 0-7.4-7.4 7.4 7.4 0 0 0 7.4 7.4"/>
    <path d="M361.4 162a7.4 7.4 0 1 0-7.4-7.5 7.4 7.4 0 0 0 7.4 7.4"/>
    <path d="M388.6 480.5a7.4 7.4 0 1 0-7.4-7.4 7.4 7.4 0 0 0 7.4 7.4"/>
    <path d="M388.6 456a7.4 7.4 0 1 0-7.4-7.4 7.4 7.4 0 0 0 7.4 7.4"/>
    <path d="M388.6 431.5a7.4 7.4 0 1 0-7.4-7.4 7.4 7.4 0 0 0 7.4 7.4"/>
    <path d="M388.6 407a7.4 7.4 0 1 0-7.4-7.4 7.4 7.4 0 0 0 7.4 7.4"/>
    <path d="M388.6 382.5a7.4 7.4 0 1 0-7.4-7.4 7.4 7.4 0 0 0 7.4 7.4"/>
    <path d="M388.6 358a7.4 7.4 0 1 0-7.4-7.4 7.4 7.4 0 0 0 7.4 7.4"/>
    <path d="M388.6 333.5a7.4 7.4 0 1 0-7.4-7.5 7.4 7.4 0 0 0 7.4 7.5"/>
    <path d="M388.6 309a7.4 7.4 0 1 0-7.4-7.5 7.4 7.4 0 0 0 7.4 7.5"/>
    <path d="M388.6 284.4a7.4 7.4 0 1 0-7.4-7.4 7.4 7.4 0 0 0 7.4 7.4"/>
    <path d="M388.6 260a7.4 7.4 0 1 0-7.4-7.5 7.4 7.4 0 0 0 7.4 7.4"/>
    <path d="M388.6 235.4a7.4 7.4 0 1 0-7.4-7.4 7.4 7.4 0 0 0 7.4 7.4"/>
    <path d="M388.6 211a7.4 7.4 0 1 0-7.4-7.5 7.4 7.4 0 0 0 7.4 7.4"/>
    <path d="M388.6 186.4a7.4 7.4 0 1 0-7.4-7.4 7.4 7.4 0 0 0 7.4 7.4"/>
    <path d="M388.6 162a7.4 7.4 0 1 0-7.4-7.5 7.4 7.4 0 0 0 7.4 7.4"/>
    <path d="M388.6 137.4a7.4 7.4 0 1 0-7.4-7.4 7.4 7.4 0 0 0 7.4 7.4"/>
    <path d="M415.8 480.5a7.4 7.4 0 1 0-7.4-7.4 7.4 7.4 0 0 0 7.4 7.4"/>
    <path d="M415.8 456a7.4 7.4 0 1 0-7.4-7.4 7.4 7.4 0 0 0 7.4 7.4"/>
    <path d="M415.8 431.5a7.4 7.4 0 1 0-7.4-7.4 7.4 7.4 0 0 0 7.4 7.4"/>
    <path d="M415.8 407a7.4 7.4 0 1 0-7.4-7.4 7.4 7.4 0 0 0 7.4 7.4"/>
    <path d="M415.8 382.5a7.4 7.4 0 1 0-7.4-7.4 7.4 7.4 0 0 0 7.4 7.4"/>
    <path d="M415.8 358a7.4 7.4 0 1 0-7.4-7.4 7.4 7.4 0 0 0 7.4 7.4"/>
    <path d="M415.8 333.5a7.4 7.4 0 1 0-7.4-7.5 7.4 7.4 0 0 0 7.4 7.5"/>
    <path d="M415.8 309a7.4 7.4 0 1 0-7.4-7.5 7.4 7.4 0 0 0 7.4 7.5"/>
    <path d="M415.8 284.4a7.4 7.4 0 1 0-7.4-7.4 7.4 7.4 0 0 0 7.4 7.4"/>
    <path d="M415.8 260a7.4 7.4 0 1 0-7.4-7.5 7.4 7.4 0 0 0 7.4 7.4"/>
    <path d="M415.8 235.4a7.4 7.4 0 1 0-7.4-7.4 7.4 7.4 0 0 0 7.4 7.4"/>
    <path d="M415.8 211a7.4 7.4 0 1 0-7.4-7.5 7.4 7.4 0 0 0 7.4 7.4"/>
    <path d="M415.8 186.4a7.4 7.4 0 1 0-7.4-7.4 7.4 7.4 0 0 0 7.4 7.4"/>
    <path d="M415.8 162a7.4 7.4 0 1 0-7.4-7.5 7.4 7.4 0 0 0 7.4 7.4"/>
    <path d="M415.8 137.4a7.4 7.4 0 1 0-7.4-7.4 7.4 7.4 0 0 0 7.4 7.4"/>
    <path d="M415.8 112.9a7.4 7.4 0 1 0-7.4-7.4 7.4 7.4 0 0 0 7.4 7.4"/>
    <path d="M443 480.5a7.4 7.4 0 1 0-7.4-7.4 7.4 7.4 0 0 0 7.5 7.4"/>
    <path d="M443 456a7.4 7.4 0 1 0-7.4-7.4 7.4 7.4 0 0 0 7.5 7.4"/>
    <path d="M443 431.5a7.4 7.4 0 1 0-7.4-7.4 7.4 7.4 0 0 0 7.5 7.4"/>
    <path d="M443 407a7.4 7.4 0 1 0-7.4-7.4 7.4 7.4 0 0 0 7.5 7.4"/>
    <path d="M443 382.5a7.4 7.4 0 1 0-7.4-7.4 7.4 7.4 0 0 0 7.5 7.4"/>
    <path d="M443 358a7.4 7.4 0 1 0-7.4-7.4 7.4 7.4 0 0 0 7.5 7.4"/>
    <path d="M443 333.5a7.4 7.4 0 1 0-7.4-7.5 7.4 7.4 0 0 0 7.5 7.5"/>
    <path d="M443 309a7.4 7.4 0 1 0-7.4-7.5 7.4 7.4 0 0 0 7.5 7.5"/>
    <path d="M443 284.4a7.4 7.4 0 1 0-7.4-7.4 7.4 7.4 0 0 0 7.5 7.4"/>
    <path d="M443 260a7.4 7.4 0 1 0-7.4-7.5 7.4 7.4 0 0 0 7.5 7.4"/>
    <path d="M443 235.4a7.4 7.4 0 1 0-7.4-7.4 7.4 7.4 0 0 0 7.5 7.4"/>
    <path d="M443 211a7.4 7.4 0 1 0-7.4-7.5 7.4 7.4 0 0 0 7.5 7.4"/>
    <path d="M443 186.4a7.4 7.4 0 1 0-7.4-7.4 7.4 7.4 0 0 0 7.5 7.4"/>
    <path d="M443 162a7.4 7.4 0 1 0-7.4-7.5 7.4 7.4 0 0 0 7.5 7.4"/>
    <path d="M443 137.4a7.4 7.4 0 1 0-7.4-7.4 7.4 7.4 0 0 0 7.5 7.4"/>
    <path d="M443 112.9a7.4 7.4 0 1 0-7.4-7.4 7.4 7.4 0 0 0 7.5 7.4"/>
    <path d="M443 88.4a7.4 7.4 0 1 0-7.4-7.4 7.4 7.4 0 0 0 7.5 7.4"/>
    <path d="M470.3 480.5a7.4 7.4 0 1 0-7.4-7.4 7.4 7.4 0 0 0 7.4 7.4"/>
    <path d="M470.3 456a7.4 7.4 0 1 0-7.4-7.4 7.4 7.4 0 0 0 7.4 7.4"/>
    <path d="M470.3 431.5a7.4 7.4 0 1 0-7.4-7.4 7.4 7.4 0 0 0 7.4 7.4"/>
    <path d="M470.3 407a7.4 7.4 0 1 0-7.4-7.4 7.4 7.4 0 0 0 7.4 7.4"/>
    <path d="M470.3 382.5a7.4 7.4 0 1 0-7.4-7.4 7.4 7.4 0 0 0 7.4 7.4"/>
    <path d="M470.3 358a7.4 7.4 0 1 0-7.4-7.4 7.4 7.4 0 0 0 7.4 7.4"/>
    <path d="M470.3 333.5a7.4 7.4 0 1 0-7.4-7.5 7.4 7.4 0 0 0 7.4 7.5"/>
    <path d="M470.3 309a7.4 7.4 0 1 0-7.4-7.5 7.4 7.4 0 0 0 7.4 7.5"/>
    <path d="M470.3 284.4a7.4 7.4 0 1 0-7.4-7.4 7.4 7.4 0 0 0 7.4 7.4"/>
    <path d="M470.3 260a7.4 7.4 0 1 0-7.4-7.5 7.4 7.4 0 0 0 7.4 7.4"/>
    <path d="M470.3 235.4a7.4 7.4 0 1 0-7.4-7.4 7.4 7.4 0 0 0 7.4 7.4"/>
    <path d="M470.3 211a7.4 7.4 0 1 0-7.4-7.5 7.4 7.4 0 0 0 7.4 7.4"/>
    <path d="M470.3 186.4a7.4 7.4 0 1 0-7.4-7.4 7.4 7.4 0 0 0 7.4 7.4"/>
    <path d="M470.3 162a7.4 7.4 0 1 0-7.4-7.5 7.4 7.4 0 0 0 7.4 7.4"/>
    <path d="M470.3 137.4a7.4 7.4 0 1 0-7.4-7.4 7.4 7.4 0 0 0 7.4 7.4"/>
    <path d="M470.3 112.9a7.4 7.4 0 1 0-7.4-7.4 7.4 7.4 0 0 0 7.4 7.4"/>
    <path d="M470.3 88.4a7.4 7.4 0 1 0-7.4-7.4 7.4 7.4 0 0 0 7.4 7.4"/>
    <path d="M470.3 63.9a7.4 7.4 0 1 0-7.4-7.5 7.4 7.4 0 0 0 7.4 7.5"/>
    <path d="M497.5 480.5a7.4 7.4 0 1 0-7.4-7.4 7.4 7.4 0 0 0 7.4 7.4"/>
    <path d="M497.5 456a7.4 7.4 0 1 0-7.4-7.4 7.4 7.4 0 0 0 7.4 7.4"/>
    <path d="M497.5 431.5a7.4 7.4 0 1 0-7.4-7.4 7.4 7.4 0 0 0 7.4 7.4"/>
    <path d="M497.5 407a7.4 7.4 0 1 0-7.4-7.4 7.4 7.4 0 0 0 7.4 7.4"/>
    <path d="M497.5 382.5a7.4 7.4 0 1 0-7.4-7.4 7.4 7.4 0 0 0 7.4 7.4"/>
    <path d="M497.5 358a7.4 7.4 0 1 0-7.4-7.4 7.4 7.4 0 0 0 7.4 7.4"/>
    <path d="M497.5 333.5a7.4 7.4 0 1 0-7.4-7.5 7.4 7.4 0 0 0 7.4 7.5"/>
    <path d="M497.5 309a7.4 7.4 0 1 0-7.4-7.5 7.4 7.4 0 0 0 7.4 7.5"/>
    <path d="M497.5 284.4a7.4 7.4 0 1 0-7.4-7.4 7.4 7.4 0 0 0 7.4 7.4"/>
    <path d="M497.5 260a7.4 7.4 0 1 0-7.4-7.5 7.4 7.4 0 0 0 7.4 7.4"/>
    <path d="M497.5 235.4a7.4 7.4 0 1 0-7.4-7.4 7.4 7.4 0 0 0 7.4 7.4"/>
    <path d="M497.5 211a7.4 7.4 0 1 0-7.4-7.5 7.4 7.4 0 0 0 7.4 7.4"/>
    <path d="M497.5 186.4a7.4 7.4 0 1 0-7.4-7.4 7.4 7.4 0 0 0 7.4 7.4"/>
    <path d="M497.5 162a7.4 7.4 0 1 0-7.4-7.5 7.4 7.4 0 0 0 7.4 7.4"/>
    <path d="M497.5 137.4a7.4 7.4 0 1 0-7.4-7.4 7.4 7.4 0 0 0 7.4 7.4"/>
    <path d="M497.5 112.9a7.4 7.4 0 1 0-7.4-7.4 7.4 7.4 0 0 0 7.4 7.4"/>
    <path d="M497.5 88.4a7.4 7.4 0 1 0-7.4-7.4 7.4 7.4 0 0 0 7.4 7.4"/>
    <path d="M497.5 63.9a7.4 7.4 0 1 0-7.4-7.5 7.4 7.4 0 0 0 7.4 7.5"/>
    <path d="M497.5 39.4a7.4 7.4 0 1 0-7.4-7.5 7.4 7.4 0 0 0 7.4 7.5"/>
    <path d="M524.7 480.5a7.4 7.4 0 1 0-7.4-7.4 7.4 7.4 0 0 0 7.4 7.4"/>
    <path d="M524.7 456a7.4 7.4 0 1 0-7.4-7.4 7.4 7.4 0 0 0 7.4 7.4"/>
    <path d="M524.7 431.5a7.4 7.4 0 1 0-7.4-7.4 7.4 7.4 0 0 0 7.4 7.4"/>
    <path d="M524.7 407a7.4 7.4 0 1 0-7.4-7.4 7.4 7.4 0 0 0 7.4 7.4"/>
    <path d="M524.7 382.5a7.4 7.4 0 1 0-7.4-7.4 7.4 7.4 0 0 0 7.4 7.4"/>
    <path d="M524.7 358a7.4 7.4 0 1 0-7.4-7.4 7.4 7.4 0 0 0 7.4 7.4"/>
    <path d="M524.7 333.5a7.4 7.4 0 1 0-7.4-7.5 7.4 7.4 0 0 0 7.4 7.5"/>
    <path d="M524.7 309a7.4 7.4 0 1 0-7.4-7.5 7.4 7.4 0 0 0 7.4 7.5"/>
    <path d="M524.7 284.4a7.4 7.4 0 1 0-7.4-7.4 7.4 7.4 0 0 0 7.4 7.4"/>
    <path d="M524.7 260a7.4 7.4 0 1 0-7.4-7.5 7.4 7.4 0 0 0 7.4 7.4"/>
    <path d="M524.7 235.4a7.4 7.4 0 1 0-7.4-7.4 7.4 7.4 0 0 0 7.4 7.4"/>
    <path d="M524.7 211a7.4 7.4 0 1 0-7.4-7.5 7.4 7.4 0 0 0 7.4 7.4"/>
    <path d="M524.7 186.4a7.4 7.4 0 1 0-7.4-7.4 7.4 7.4 0 0 0 7.4 7.4"/>
    <path d="M524.7 162a7.4 7.4 0 1 0-7.4-7.5 7.4 7.4 0 0 0 7.4 7.4"/>
    <path d="M524.7 137.4a7.4 7.4 0 1 0-7.4-7.4 7.4 7.4 0 0 0 7.4 7.4"/>
    <path d="M524.7 112.9a7.4 7.4 0 1 0-7.4-7.4 7.4 7.4 0 0 0 7.4 7.4"/>
    <path d="M524.7 88.4a7.4 7.4 0 1 0-7.4-7.4 7.4 7.4 0 0 0 7.4 7.4"/>
    <path d="M524.7 63.9a7.4 7.4 0 1 0-7.4-7.5 7.4 7.4 0 0 0 7.4 7.5"/>
    <path d="M524.7 39.4a7.4 7.4 0 1 0-7.4-7.5 7.4 7.4 0 0 0 7.4 7.5"/>
    <path d="M524.7 14.9a7.4 7.4 0 1 0-7.4-7.5 7.4 7.4 0 0 0 7.4 7.5"/>
  </g>
</svg>
