<svg xmlns="http://www.w3.org/2000/svg" viewBox="0 0 117.3 26.9" fill="currentColor"><path d="M10.4 2.5A1.2 1.2 0 1 0 9 1.2a1.2 1.2 0 0 0 1.3 1.3Zm3.2 0a1.2 1.2 0 0 0 0-2.5 1.2 1.2 0 1 0 0 2.5Zm3.2 0a1.2 1.2 0 0 0 0-2.5 1.2 1.2 0 1 0 0 2.5ZM7 2.5A1.2 1.2 0 1 0 6 1.2a1.2 1.2 0 0 0 1.2 1.3ZM4 2.5a1.2 1.2 0 1 0-1.3-1.3A1.2 1.2 0 0 0 4 2.5Zm6.4 15.3A1.2 1.2 0 1 0 9 16.6a1.2 1.2 0 0 0 1.3 1.2ZM9 12a1.2 1.2 0 1 0 1.3-1.2A1.2 1.2 0 0 0 9 12ZM9 15.2a1.2 1.2 0 1 0-1.8 0 1.3 1.3 0 0 0 1.8 0Zm2.8 2.8a1.2 1.2 0 1 0 1.7 0 1.2 1.2 0 0 0-1.7 0Zm-6-2.7a1.2 1.2 0 1 0 1.3 1.3 1.2 1.2 0 0 0-1.2-1.3Zm9.1 2.5a1.2 1.2 0 1 0-1.2-1.2 1.2 1.2 0 0 0 1.2 1.2ZM9 18a1.2 1.2 0 1 0 0 1.7A1.2 1.2 0 0 0 9 18Zm2.9-2.9a1.2 1.2 0 0 0 1.7-1.7 1.2 1.2 0 0 0-1.7 1.7Zm-1.4-9L0 16.5 10.4 27l10.3-10.4Zm-8 10.4 8-7.9 7.9 8-8 7.8Zm9.5 4.9H11v1.1H9.7v-1H9v-1h3ZM28 19.3l-2.1-.1v-7l2.4-.1c2.2 0 3.6.9 3.6 3.4s-1.6 3.8-3.9 3.8Zm.2-5.9a6.7 6.7 0 0 0-.7 0v4.4a4.5 4.5 0 0 0 .6 0c1.2 0 2-.7 2-2.2 0-1.3-.4-2.1-1.9-2.1Zm5.5 0a1 1 0 1 1 0-1.9 1 1 0 0 1 1 1 1 1 0 0 1-1 1Zm-.8 5.8V14h1.6v5.2Zm5 .1a3 3 0 0 1-.6 0v2.5h-1.6V14h1.5a6.8 6.8 0 0 1 0 .7 1.7 1.7 0 0 1 1.6-.8c1.3 0 2 .9 2 2.4-.1 1.8-1 3-3 3Zm.4-4.1c-.6 0-1 .6-1 1.5V18a2.3 2.3 0 0 0 .6 0c.6 0 1-.4 1-1.5.1-.9-.1-1.3-.6-1.3Zm6.6 4a4.1 4.1 0 0 1 0-.8 2 2 0 0 1-1.7 1c-1.2 0-1.6-.8-1.6-1.7V14h1.6v3.3c0 .4.2.7.5.7.6 0 1-.7 1-1.5V14h1.7v5.2Zm4.6.1c-1.2 0-1.6-.4-1.6-1.7v-2.4h-.8V14h.8v-1.6l1.6-.4v2h1.2v1.2h-1.2v2.1c0 .5.2.7.6.7a2.8 2.8 0 0 0 .5 0v1.2a4.8 4.8 0 0 1-1 .1Zm5-.1a5.4 5.4 0 0 1 0-.8 1.8 1.8 0 0 1-1.6 1 1.4 1.4 0 0 1-1.6-1.5c0-1.3 1.3-2 3-2v-.2c0-.4-.2-.7-.9-.7a3.7 3.7 0 0 0-1.5.4l-.2-1.3a6.6 6.6 0 0 1 2-.3c1.8 0 2.3.7 2.3 1.9v3.5Zm-.2-2.3c-1.1 0-1.4.4-1.4.7s.2.5.5.5a1 1 0 0 0 1-1Zm5 2.4c-1.6 0-2.4-.9-2.4-2.6a2.6 2.6 0 0 1 2.8-2.9 4.4 4.4 0 0 1 1 .2l-.2 1.4a2.5 2.5 0 0 0-.8-.2c-.7 0-1.1.6-1.1 1.4s.4 1.3 1 1.3a2.1 2.1 0 0 0 1-.2l.1 1.4a4.3 4.3 0 0 1-1.4.2Zm3.2-5.9a1 1 0 1 1 1-1 1 1 0 0 1-1 1Zm-.8 5.8V14h1.6v5.2Zm5 .1a2.3 2.3 0 0 1-2.5-2.6 2.7 2.7 0 0 1 2.8-2.9 2.3 2.3 0 0 1 2.5 2.7 2.7 2.7 0 0 1-2.8 2.8Zm-.3-6-.5-1 2-1 .7 1Zm.5 1.9c-.5 0-1 .4-1 1.3s.3 1.4 1 1.4 1-.5 1-1.4-.4-1.3-1-1.3Zm7.9-1.7v5.7h-1.7v-5.7h-1.7v-1.4h5v1.4Zm4.7 5.7a5.4 5.4 0 0 1 0-.8 1.8 1.8 0 0 1-1.6.9 1.4 1.4 0 0 1-1.5-1.4c0-1.4 1.2-2 3-2v-.2c0-.5-.3-.7-1-.7a3.6 3.6 0 0 0-1.5.4l-.1-1.3a6.7 6.7 0 0 1 1.9-.3c1.8 0 2.3.6 2.3 1.8v3.5Zm-.1-2.3c-1.2 0-1.5.3-1.5.7s.2.5.5.5a1 1 0 0 0 1-1Zm5.8-1.5c-.9-.2-1.3.3-1.3 1.6v2.2h-1.7V14H84a5.6 5.6 0 0 1-.1 1 1.6 1.6 0 0 1 1.6-1Zm3.8 0c-.9-.2-1.4.3-1.4 1.6v2.2h-1.6V14h1.5a6.8 6.8 0 0 1 0 1 1.6 1.6 0 0 1 1.6-1Zm3.4 3.8a4.3 4.3 0 0 1 0-.8 1.8 1.8 0 0 1-1.5.9 1.4 1.4 0 0 1-1.6-1.4c0-1.4 1.3-2 3-2v-.2c0-.5-.3-.7-1-.7a3.6 3.6 0 0 0-1.5.4l-.1-1.3a6.7 6.7 0 0 1 1.9-.3c1.8 0 2.3.6 2.3 1.8v3.5Zm-.1-2.3c-1.2 0-1.4.3-1.4.7s.1.5.5.5a1 1 0 0 0 .9-1Zm4.8 5c-1.4 0-2.3-.6-2.3-1.6a1.5 1.5 0 0 1 .8-1.2.9.9 0 0 1-.5-.8 1 1 0 0 1 .6-1A1.5 1.5 0 0 1 95 16c0-1.1.9-2 2.5-2a4.1 4.1 0 0 1 1 .1h1.7v1.3h-.6a.9.9 0 0 1 .2.5c0 1.1-.9 1.9-2.3 1.9h-.4a.3.3 0 0 0-.2.2c0 .2.1.3.7.3h.8c1.1 0 1.8.5 1.8 1.6s-1.1 2-3 2Zm.7-2.5h-1a.7.7 0 0 0-.4.6c0 .4.4.7 1 .7.7 0 1.1-.4 1.1-.8s-.2-.5-.7-.5Zm-.5-4.4a.8.8 0 1 0 0 1.6.8.8 0 1 0 0-1.6Zm5.8 4.3a2.3 2.3 0 0 1-2.5-2.6 2.7 2.7 0 0 1 2.8-2.8 2.3 2.3 0 0 1 2.5 2.6 2.7 2.7 0 0 1-2.8 2.8Zm.2-4c-.5 0-1 .3-1 1.3s.3 1.4 1 1.4 1-.5 1-1.4-.3-1.4-1-1.4Zm6.7 4v-3.4c0-.4-.1-.7-.5-.7-.6 0-1 .7-1 1.5v2.5H107V14h1.5a4.3 4.3 0 0 1 0 .8 2 2 0 0 1 1.7-1c1.1 0 1.5.8 1.5 1.7v3.7Zm5.7 0a4.3 4.3 0 0 1 0-.8 1.8 1.8 0 0 1-1.6.9 1.4 1.4 0 0 1-1.6-1.5c0-1.3 1.3-2 3-2v-.2c0-.4-.2-.6-.9-.6a3.6 3.6 0 0 0-1.5.4L113 14a6.7 6.7 0 0 1 2-.3c1.8 0 2.3.7 2.3 2v3.4Zm-.2-2.3c-1.1 0-1.4.3-1.4.7s.2.4.5.4a1 1 0 0 0 1-1ZM5.2 3.2h10.4V5H5.2Z"/></svg>