<svg xmlns="http://www.w3.org/2000/svg" viewBox="0 0 1000 174"><path d="M280.4 134.6v-23.5h4.5c3.8 0 4.5.3 4.5 2 0 1.9.2 1.9 3.7-.5 10.5-7.1 22.3 1.3 22.3 15.8 0 10.7-4.4 16.7-12.9 17.5-3.9.4-5.8 0-8.6-1.6l-4-2.2c-.3 0-.5 3.6-.5 8v8h-9v-23.5zm23.2 2.5c3-2.9 3-3.4 2.6-9.6-.3-5.4-.8-7-2.7-8.5-5.6-4.6-12.9-.7-13.8 7.4-1.2 11 7.1 17.5 14 10.7zm445.5 8.9c-6.4-1-12-4.7-15.4-10.6-2.4-4.2-2.8-5.7-2.8-13.3 0-10.5 2.8-16.8 9.4-21.4 3.6-2.6 5.4-3 11.7-3.4 6-.3 8.2 0 11.9 1.8 4.8 2.4 8.1 6.2 9.5 11l.9 3h-4.8c-4 0-5-.3-6.1-2.5-2.7-5.2-10.2-7-16-3.9-4 2-7 8.4-7 15 0 12.3 9 19.6 18.6 15.2 2.6-1.2 5.4-5.4 5.4-8.2 0-1.2 1.2-1.6 5-1.6 5.8 0 6.2 1 3.2 7.5-1.7 3.6-8.1 10.5-10 10.6l-4.7.8c-2.2.4-6.1.4-8.8 0zm-707.7-1.3c0-.8.6-2.6 1.2-4 1-2.1 1-3.1 0-4.6-1-1.5-.8-2 .6-2.9 1.6-.8 1.6-1.2.3-3.3a57 57 0 0 1-1.2-24c.8-.9 1.1-.7 1.1.5 0 1 2.3 6 5 11.3 2.8 5.3 5 10.3 5 11 0 .8 1 1.4 2 1.4 1.3 0 2 .7 2 2 0 1.2 1.1 2.2 3 2.9a28 28 0 0 1 6.3 3.5c1.8 1.4 5.3 3.5 7.8 4.6l4.4 2h-9.2c-5 0-10.3-.5-11.8-1.2-2.3-1-2.8-1-3.6.6-.8 1.4-1.3 1.5-2.5.5-1-.9-2-.9-4 0-3.4 1.6-6.4 1.4-6.4-.3Zm5.8-1.1c1.2-.9 2.2-2.2 2.2-3 0-2-1-1.8-3.6.7-3.8 3.6-2.8 5.2 1.4 2.3zm6.2-2.9c-1.3-1.3-2.1-.2-1.3 1.9.5 1.3.8 1.4 1.4.4.5-.7.4-1.8 0-2.3zm17.5 2c-1.6-.7-4.5-2.5-6.4-4a12.1 12.1 0 0 0-6.8-2.6c-5.7 0-3.3 2.3 5.3 5.3 8.3 2.8 13 3.6 8 1.3zm-18.5-6c0-.9-.6-1.6-1.5-1.6s-1.5.7-1.5 1.5.7 1.5 1.5 1.5 1.5-.6 1.5-1.5zm-5-2c-.6-.8-1.8-1.2-2.6-.9-1.2.5-1.3.8-.2 1.5.7.4 2 .8 2.7.8 1 0 1.1-.3.2-1.4zm8.9-1.5c.2-.7-.2-1.1-1-.9-.6.3-1.4 1-1.7 1.8-.2.7.2 1.1.9.9.7-.3 1.5-1 1.8-1.8zm-4.2-1.7c.4-2-.5-4.8-4.2-11.7-4-7.7-4.6-8.5-4-5.2a77 77 0 0 0 6.7 19.5c.4 0 1-1.1 1.5-2.6zm68.8 13.8c-3.7-.7-3.8-.7-1.3-1.4 1.4-.4 4.9-2.3 7.7-4.3 2.9-2 6.3-4 7.7-4.5 1.5-.5 2.4-1.7 2.4-3s.7-2 2-2c1.1 0 2.2-.9 2.6-2.2.3-1.2 2-4.3 3.6-6.9 1.5-2.5 4-7.7 5.4-11.5l2.5-6.9-.3 13.1c-.3 12.7-.3 13.2-3.1 16.9-2.5 3.1-2.6 3.7-1 3.3 1-.2 1.7-1 1.6-1.7-.2-.7.3-1 1-.8.7.3 1.1 1.3 1 2.3-.5 2.5-.4 3.3.3 7.2.6 2.8.4 3.2-1.5 3.2-1.1 0-3-.5-4-1.1-1.2-.8-2.3-.8-3.6 0-1.4.7-2.1.6-3-.6-.9-1.2-1.6-1.3-3.2-.4a38.2 38.2 0 0 1-16.8 1.3zm28.8-3.4c-3.2-3.1-4.8-3.4-3.7-.5.5 1.4 4 3.5 6 3.7.5 0-.5-1.4-2.3-3.2zm-14.8-1.1c6.7-2.5 8.4-4.7 3.6-4.7-2 0-5.8 1.6-9.9 4.1-5.8 3.6-6.2 4-3.2 3.4a90 90 0 0 0 9.5-2.8zm8.5.7c0-.8-.4-1.2-1-.9-.5.4-1 1.3-1 2.2s.5 1.2 1 .8c.6-.3 1-1.3 1-2zm2.6-3.4c1-1.7-1.3-3.6-2.7-2.2-1.1 1.1-.4 3.2 1.1 3.2.5 0 1.2-.4 1.6-1zm-4.6-4.4c-.6-.9-1.6-1.3-2-1-1.4.8-.1 2.4 1.7 2.4 1.3 0 1.4-.2.3-1.4zm7.4-9c1.3-4.5 2.7-9.9 3-12l.6-4-1.7 4.5a73 73 0 0 1-4.5 9.2c-2.6 4.3-3.6 9.6-2 11 1 1.2 2-.4 4.6-8.8zm100.7 19.7c-9.8-4.9-12-19.8-4.4-28.3 1.9-2.1 5-4.4 7-5 4.6-1.5 11.9-.7 15.2 1.7 3.4 2.5 7.1 9.8 7.1 14v3.3H262c-11.5 0-12.5.2-12.5 2 0 2.8 3.7 6.8 7 7.5 3 .7 9-1.6 9-3.5 0-.5 1.8-1 4-1 2.3 0 4 .5 4 1.1 0 2-4 7-7 8.5-3.9 2-12.7 1.8-17-.3zm16-20.3c0-1.5-2.2-5.3-3.5-6.2a12 12 0 0 0-4.7-.7c-2.8 0-4.2.6-5.8 2.6-3.7 4.6-2.9 5.3 6 5.3 5 0 8-.4 8-1zm59.8 20.5c-3-1.7-5.3-7-4.3-10.8 1.1-4.4 4.6-6.6 13-8 8.9-1.6 11.4-3.6 9-7.1-2.3-3.6-11.6-2.9-11.6 1 0 1-1.2 1.4-4.5 1.4-5 0-5.8-1.6-3-5.7 3.8-5.4 19.4-7 25.4-2.5 3.5 2.6 4 4.7 4 19.5l.1 12.7H349c-3.3 0-4.5-.4-4.5-1.4 0-1.3-.6-1.2-3.2.5-3.9 2.3-12 2.6-16 .4zm16.4-6.2a14 14 0 0 0 2.3-5.6l.7-3.9-4.4.7c-9.1 1.4-12.3 4-9.9 8.5 1.5 2.7 9 2.9 11.3.3zm52.5 6.6c-3.6-1.3-4.7-5.7-4.8-18.1 0-9.7 0-9.8-2.5-9.8-2 0-2.5-.4-2.5-3 0-2.5.4-3 2.5-3 2.2 0 2.5-.4 2.7-5.2l.3-5.3 4.3-.3 4.2-.3v11.1h3.5c3.3 0 3.5.3 3.5 3s-.2 3-3.5 3h-3.5v9.1c0 10.2 1 13 4.6 13 2.1 0 2.4.4 2.4 3.4 0 3.5 0 3.5-4.2 3.5a27 27 0 0 1-7-1.1zm21.2.4c-4.8-1.7-7.1-8-5-13.2 1.5-3.5 5.6-5.6 13-6.6 7-.9 9-2 9-4.8 0-3.2-1.8-4.7-6-4.7-3 0-4.2.6-5.7 2.6-1.5 2.2-2.5 2.5-6 2.3l-4.3-.4 1.8-3.5c1-1.9 3-4 4.6-4.8 6.7-3.2 18-2.6 22 1.2 2.4 2 2.5 2.8 2.9 16.9l.4 14.7h-4.4c-3.1 0-4.3-.4-4.3-1.4 0-1.3-.6-1.2-3.2.5a22.7 22.7 0 0 1-14.8 1.2zm15.2-7c1.2-1 1.8-3 1.8-5.5V129l-3.7.7c-6.3 1-9.3 2.5-9.9 5-.3 1.4 0 3.1.6 4 1.7 2 8.9 1.9 11.2-.2zm88.3 6.3c-7.6-3.3-11.4-13.6-8.3-22.7 1.5-4.5 6.4-9.6 10.6-11 4.5-1.4 11.8-.6 15.1 1.8 3.4 2.5 7.1 9.8 7.1 14v3.3H531c-11.7 0-12.5.2-12.5 2 0 2.8 4 7 7.5 7.6 2.3.4 4 0 6.8-2 3.9-2.6 9.7-3.5 9.7-1.5s-4 7-7 8.5a25.7 25.7 0 0 1-16.5 0zm15.5-20.6c0-1.5-2-5.3-3.4-6.2a12 12 0 0 0-4.7-.7c-2.8 0-4.2.6-5.8 2.6-3.7 4.6-2.9 5.3 6 5.3 5 0 8-.4 8-1zm62.4 20.6c-1.7-.7-3.4-2.1-3.7-3a84 84 0 0 1-.7-13.1V117h-3c-2.6 0-3-.3-3-3s.4-3 3-3c3 0 3 0 3-5.5V100h9v11h3.5c3.3 0 3.5.3 3.5 3s-.2 3-3.5 3h-3.5v9.8c0 10.5.7 12.2 4.7 12.2 2 0 2.3.6 2.3 3.5 0 3.5 0 3.5-4.2 3.5-2.3 0-5.7-.6-7.4-1.4zm41.8-.6c-9.1-5.6-9.6-25.7-.7-31.5a16 16 0 0 1 13.8-1.1c2 .8 3.7 2 3.7 2.6 0 .6.5 1 1 1 .6 0 1-3.5 1-8.5v-8.5h9v47H662c-3.9 0-4.5-.2-4.5-2 0-2 0-2-3 .5-4 3.2-10.9 3.5-15.8.5zm16-7c3.7-4.3 3.5-14.3-.2-18-2.5-2.5-8-2.5-11-.1-3.1 2.5-4 12.8-1.5 16.7 3.1 4.8 9.3 5.4 12.8 1.3zm25.8 6.8c-5.5-3.8-7.3-7.1-7.7-14-.5-8.5 2.4-14.3 8.7-17.5 11.3-5.7 23 .5 24.7 13.1l.6 4.6h-25.3v2.5c0 3 3 6.2 6.4 7 2.6.8 9.6-1.8 9.6-3.4 0-.6 1.8-1 4-1s4 .2 4 .6c0 2-4.5 7.4-7.4 8.7-5 2.4-13.5 2.1-17.6-.6zm16.5-21c-1.2-3.9-3.6-5.8-7.3-5.8-4 0-8.2 3.2-8.2 6.2 0 1.6 1 1.8 8.1 1.8 8 0 8 0 7.4-2.2zm89.8 22c-4.1-2-5.3-6.5-5.3-20.7v-13h9v11.7c0 13.8 1 16.2 6.6 16.2a8 8 0 0 0 5.4-2c1.8-1.7 2-3.3 2-14v-12h9v34h-4c-3.3 0-4-.3-4-2 0-1-.4-2-1-2s-1 .4-1 .8-1.3 1.6-2.9 2.5a18.5 18.5 0 0 1-13.8.5zm59.1-.2c-3.9-1.7-4.3-3.5-4.3-16.8V117h-3c-2.7 0-3-.3-3-3s.3-3 3-3c3 0 3 0 3-5.5V100h9v11h3.4c3.3 0 3.5.3 3.5 3s-.2 3-3.5 3h-3.5v9.8c0 10.5.7 12.2 4.7 12.2 2 0 2.3.6 2.3 3.5 0 3.5 0 3.5-4.2 3.5-2.3 0-5.7-.6-7.4-1.4zm21.3-.6c-3.6-2.8-4.7-7.6-4.7-21.2V111h9v10.6c0 7 .5 11.7 1.5 14 1.3 3.1 1.8 3.4 5.5 3.4 6.2 0 7.5-2.7 7.9-16.7l.4-11.3h8.7v34H891c-3.8 0-4.5-.3-4.5-2 0-1.8-.1-1.8-3.6.6-4.7 3.2-12 3.4-15.7.4zm65.2.5c-3.2-1.7-5.3-6.4-4.4-10.3 1-4.6 4.5-7 11.6-8.2 8.9-1.5 11-2.5 11-5.2 0-3.3-1.9-4.8-5.8-4.8-2.3 0-4 .8-5.7 2.5-1.7 2-3.3 2.5-6.4 2.5h-4.2l1.3-3.2c2.5-6.3 13.2-9.4 22.8-6.7 6.2 1.7 6.6 2.8 7.2 19.2l.4 14.7h-4.3c-3.2 0-4.4-.4-4.4-1.4 0-1.3-.6-1.2-3.2.5-3.9 2.3-12 2.6-15.9.4zm16.3-6.1c1.2-1 1.8-3 1.8-5.6V129l-3.7.7c-8.6 1.4-11.6 4.1-9.3 8.4 1.4 2.6 8.5 2.8 11.2.4zm-866.2 4.4a62 62 0 0 1-37.7-43.8 93.1 93.1 0 0 1 0-36c7.3-27.5 28.5-46 52.6-46 20.9 0 37.7 11.4 48.2 32.5 9.4 19 9.4 44.8-.1 63.7a57.7 57.7 0 0 1-28.5 28c-6.3 3-8 3.3-17.5 3.6-8.8.2-11.5 0-17-2zm20-3.3c0-1-1.2-1.5-5-1.5-4.6 0-6 .7-4.3 2.4.4.3 2.6.6 5 .6 3.2 0 4.3-.4 4.3-1.5Zm-21-3.3c0-.8-9.4-7.2-10.5-7.2-1.6 0 .2 2.5 3.7 5 4 3 6.8 3.9 6.8 2.2Zm38.5-1.5c2.2-1.2 4.2-3 4.4-4 .3-1.5-.4-1.3-4.8 1-2.8 1.6-5 3.4-5 4 0 1.8.8 1.7 5.4-1zm-17.5-53.7v-55h-10v110h10v-55zm-21 0c0-40.1-.2-51-1.2-51-.7 0-3 1.4-5.3 2.9l-4 2.7-.2 45.2-.3 45.2 4.2 3a16 16 0 0 0 5.5 3c1.1 0 1.3-8.8 1.3-51Zm39.8 47.7 3.2-2.2v-91l-3.2-2.2c-7.4-5-6.8-9.4-6.8 47.7s-.6 52.7 6.8 47.7zM56 109.1a66 66 0 0 1 .6-57.2c4-8 3.3-11-1-3.8a56.3 56.3 0 0 0-7.7 33c0 15.2 1.8 22.9 7.7 33 4.5 7.9 4.8 4.4.4-5zm84.9 3c1.3-2.5 3.4-7.9 4.7-12a74.1 74.1 0 0 0 0-38c-3-9.6-8.5-20.3-9-17.3-.1 1.2.7 4.1 1.9 6.5 4.6 9 6.1 15.1 6.7 26.8.6 13-.8 20-5.8 30.9-2.9 6.2-4.2 12.5-2 9.1.7-.8 2.2-3.5 3.5-6zM59.4 81l-.1-30.3-2.5 5.2a64 64 0 0 0 2.3 55.3c.2 0 .3-13.6.3-30.2zM142 97c3.3-12.6 1.6-32-3.6-42-1.9-3.5-1.9-3.4-1.9 26s0 29.5 1.9 26c1-2 2.6-6.5 3.6-10zM76.4 30c4.3-2.7 6.3-4.9 4.5-4.9-2.3 0-10.5 5.6-10.5 7.2 0 1.3.5 1.1 6-2.3zm48 1.7c0-.8-2-2.6-4.3-4-5-2.9-5.7-3-5.6-1.3 0 .7 2.1 2.5 4.7 4 5.7 3.2 5.2 3 5.2 1.3Zm-22-9.1c0-1.2-1-1.5-4.6-1.3-6.7.5-7 2.8-.4 2.8 3.9 0 5-.3 5-1.5Zm91 99V98l14.4.3c13.6.3 14.5.5 18.3 3 12 8 11.9 32.6-.3 40.8-3.5 2.4-4.7 2.6-18 2.9l-14.4.3v-23.7Zm28 11.9c3-3.4 4.6-10.4 3.5-15.7-1.9-8.5-6.1-11.7-16-11.7h-5.5v31.3l7.6-.4c7-.4 7.9-.6 10.4-3.5zm140-5.4v-17h4c3.9 0 4 .2 4 3.2v3.1l2.5-2.6c2.4-2.7 6.4-4.7 9.1-4.7 1 0 1.4 1.2 1.4 4 0 3.7 0 3.9-4 4.5-6.6 1.2-8 3.9-8 16.2V145h-9v-17zm89 0v-17h4c3.4 0 4 .4 4 2 0 2.6.9 2.6 3.8-.2 3.5-3.3 12-3.2 15.7.2l2.5 2.4 2.4-2.2c3-2.8 8.4-3.7 13-2.2 6 2 7 4.4 7.5 20.1l.4 14h-9.3v-9.8c0-10.2-1-16-3.2-17.4-2.2-1.4-5.7-1-7.8 1.1-1.7 1.8-2 3.4-2 14v12h-8.8l-.3-12.5c-.3-11.1-.6-12.8-2.3-14a6.4 6.4 0 0 0-8.6.5c-1.7 1.8-2 3.4-2 14v12h-9v-17zm100 0v-17h4c3.7 0 4 .3 4 2.7v2.7l3-2.8c4-3.8 11.1-4.6 15.7-1.7 4.3 2.7 5.3 7 5.3 21.4V145h-9v-10.3c0-15.3-2-19.1-9.4-17.3-3.8 1-4.8 4-5.3 16.3l-.5 11.3h-7.8v-17zm271-6.5V98.1h9v47h-9v-23.5zm81 6.5v-17h4.5c4.4 0 4.5.1 4.5 3.3v3.2l2.3-2.6c2.6-3.1 5.7-4.9 8.7-4.9 1.7 0 2 .7 2 4.3 0 4.2 0 4.2-3.4 4.3-6.9.2-9.5 5.4-9.6 18.7v7.7h-9v-17zm-62.3-37.6c-1-1-.8-3.6.3-3 2 1.3 5.7-1.3 7.5-5.2l1.8-4-7-17.7c-6.5-16-7-17.6-5-17.3 1.6.3 3.1 3 7.6 14.6a104 104 0 0 0 6.1 14.2 98 98 0 0 0 5.6-14c4.5-12.9 6.4-16.3 8.1-14.6.8.7-14.7 42-16.6 44.5-1.6 2-7.2 3.7-8.4 2.5zM207.7 78.2c-10-2.4-16.3-11.5-16.3-23.4 0-8.6 1.5-13.5 5.4-18.2a22.5 22.5 0 0 1 26.2-5.4c5 2.4 6.9 4.3 9 9.2 1.4 3.6 1.4 3.7-.6 3.7-1.2 0-2.4-.9-2.9-2.3-1.4-3.7-7.5-8.4-11.9-9.1-12.2-2-21.3 6.8-21.3 20.8 0 13.6 6.8 21.6 18.4 21.6 8.6 0 15-5.4 16.3-13.7l.7-4.3h-8.1c-6.6 0-8.2-.2-8.2-1.5 0-1.2 1.8-1.5 9.5-1.5h9.5v12c0 12-1.2 16-2.5 7.7l-.6-4.3-3.7 3.7a18.7 18.7 0 0 1-19 5zm44.5.2c-4.5-.7-9.4-6.3-10.7-12.3-3-14 5.5-25.4 17.2-23.4 5.2.9 10.1 5.5 11.6 11 2.2 7.8 2.8 7.4-12.5 7.4h-13.6l.7 3.8c2.2 11.4 15.2 15 20.7 5.6 2-3.3 4.8-4.6 4.8-2.1 0 2-3.7 7.5-5.7 8.6-2.3 1.2-9 2-12.5 1.4zM267 55c-.3-1.7-1.8-4.4-3.2-6-6.6-6.8-15.6-3.4-18.8 7-.7 2.2-.7 2.2 11 2.2h11.7L267 55Zm56 23.2c-6.8-2-10.6-8.3-10.6-17.5 0-6.8 1.8-11.2 5.9-14.7 7.1-6 18-3.8 22 4.4a22 22 0 0 1 2.1 7.6v3.2l-13.2.3-13.3.2.4 3c1.2 10.5 13.2 15 19.6 7.4 1.4-1.7 2.5-3.4 2.5-4 0-.4 1-.9 2-.9s2 .4 2 .8c0 1.6-4 7.2-6.2 8.6-3 2-9.5 2.8-13.3 1.6zm15.5-22.8c-1.5-5.1-3.2-7.3-6.7-8.8-2-.8-4.8-1.2-6.3-.9-3.5.8-7.8 5.3-9 9.4l-1 3.1h23.8l-.8-2.8zm37.4 23c-7.3-2.4-10-10.7-5.1-15.6 2.2-2.2 10-4.6 15.3-4.6 4.3 0 6.3-1.7 6.3-5.3 0-8.4-13.4-10.4-17.8-2.7-2 3.5-4.2 4-4.2 1 0-5.7 9.8-10.2 17.8-8 7 1.8 7.7 3.5 8 18.1.4 11.6.6 13 2.3 13.5 2.3.7 2.5 2.3.5 3-2.1.9-5.6-1.4-5.6-3.6 0-2.6-.8-2.5-3.1.5-2.8 3.5-9.5 5.3-14.4 3.7zm12-4.7c3-2 4.5-5.6 4.5-10.3v-3.8l-7.6 1.3c-9.8 1.7-12.4 3.3-12.4 7.7 0 3.2 1.8 5.7 5 7 2.2.8 8-.3 10.5-2zm68 4.7c-5-1.7-7.5-5-7.5-9.7 0-6 3.9-8.8 13.5-10 9.2-1.1 10.5-1.8 10.5-5.8 0-8.4-13.3-10.4-17.8-2.7-2 3.5-4.2 4-4.2 1 0-5.7 9.8-10.2 17.8-8 7 1.8 7.7 3.5 8 18.1.4 11.6.6 13 2.3 13.5 2.3.7 2.5 2.3.5 3-2.1.9-5.6-1.4-5.6-3.6 0-1-.4-2-1-2s-1 .5-1 1c0 3.1-10.8 6.8-15.5 5.2zm9.6-3.8c4.7-1.9 7-5.5 7-11.4 0-3.6-.3-4-2-3.5-1 .3-4.4 1-7.6 1.5-7.8 1.3-10.5 3.2-10.5 7.4 0 3.2 1.9 5.8 5 7 2.5.9 3.8.7 8-1zm67.6 3.6c-6.7-2-10-7.8-10-17.5 0-10.6 4-16.6 12.2-18 5-.8 11.7 1.9 13.6 5.4 1.3 2.4 1.5 1.8 1.5-7.6 0-9.6.2-10.3 2-10.3 2 0 2 .7 2 24s0 24-2 24c-1.5 0-2-.6-2-3.1V72l-2.6 2.6c-1.4 1.4-4.2 3-6.2 3.6-4.2 1.2-4.6 1.2-8.5 0zm11.9-4.4c3.7-2.4 5.7-8.1 5.2-14.7-.5-7.2-3-10.8-8.6-12.8-4-1.4-4.5-1.4-8 .5-4.6 2.4-7.2 7.4-7.2 14 0 12 9.8 18.8 18.6 13zm26 4c-7-2.6-10-8.8-9.4-19.1.5-6.8 2.1-10.1 7.1-13.8 3.6-2.7 11.1-2.7 15.5-.1a18 18 0 0 1 7.2 13.2v3.2l-13.2.3-13.3.2.4 3c1 10.3 13.2 15 19.5 7.5 1.4-1.6 2.6-3.4 2.8-4 .2-.7 1.2-1 2.1-.8 1.6.3 1.6.5 0 3.8-3.4 6.7-11.1 9.4-18.7 6.6zm16.5-22.4c-1.5-5.1-3.2-7.3-6.7-8.8-2-.8-4.8-1.2-6.3-.9-3.5.8-7.8 5.3-9 9.4l-1 3.1h23.8l-.8-2.8zM631 77.7a21 21 0 0 1-13-11c-1.7-3.2-2.1-5.8-2.1-12.6 0-10.5 2.7-16.8 9.3-21.5 3.9-2.7 5-3 12-3 6.3 0 8.3.5 11.5 2.4 6.2 3.9 10.1 12.1 5.7 12.1-1.1 0-2-.9-2.4-2.3-1-3.6-7-8.4-11.5-9.1-17.5-3-28.1 20.5-16.4 36.3 4 5.4 12.8 7.8 19.6 5.2 3.5-1.4 7.5-6 8.8-10.3.8-2.7 1.7-3.8 3.1-3.8 1.6 0 1.8.5 1.3 2.5-2 8.4-6 13-12.8 15-6 1.8-6.8 1.8-13 .1zm37.3-.3a9.7 9.7 0 0 1-5.5-10.9c.8-4.4 3.8-6.3 12.2-7.6 10.2-1.5 11.3-2.1 11.3-6 0-4.3-2.6-6.8-7.6-7.4-4.7-.5-8.4 1.3-10.2 5-1.5 3.1-4.2 3.5-4.2.6 0-5.9 10.8-10.5 18.4-8 6.6 2.2 7.6 4.7 7.6 18.6 0 11.4.2 12.4 2 13 2.4.7 2.7 2.3.6 3-2.1.9-5.6-1.4-5.6-3.6 0-2.6-.8-2.5-3.1.5-1.8 2.3-7.2 4.5-10.9 4.5-.8 0-3-.7-5-1.7zm13.7-4c3.3-2.1 4.3-4.4 4.3-9.5v-4.5l-7.2 1.4c-4 .7-8.3 1.8-9.5 2.3-4.5 2-3.8 10 1 12 2.8 1.2 8.3.4 11.4-1.7zm41.4 4c-4.7-2.3-6.5-5.9-5.7-10.6 1-4.7 3.7-6.6 12.3-7.9 10.2-1.5 11.3-2.1 11.3-6 0-4.3-2.6-6.8-7.6-7.4-4.7-.5-8.4 1.3-10.2 5-1.5 3.1-4.2 3.5-4.2.6 0-5.9 10.8-10.5 18.4-8 6.6 2.2 7.6 4.7 7.6 18.6 0 11.4.2 12.4 2 13 2.4.7 2.7 2.3.6 3-2.1.9-5.6-1.4-5.6-3.6 0-2.6-.8-2.5-3.1.5-1.8 2.3-7.2 4.5-10.9 4.5-.8 0-3-.7-5-1.7zm13.6-4c3.3-2.1 4.3-4.4 4.3-9.5v-4.5l-7.2 1.4c-4 .7-8.3 1.8-9.5 2.3-4.5 2-3.8 10 1 12 2.8 1.2 8.3.4 11.4-1.7zm37.8 4.9c-6.7-2.2-7.5-4.4-7.5-21 0-11.6.3-14.2 1.5-14.2 1.1 0 1.4 2.7 1.7 14 .3 11.9.6 14.1 2.2 16 2.5 2.7 7.7 3.6 11.3 1.9 5.1-2.5 6.7-7 7.2-20 .3-9.2.7-11.9 1.8-11.9 1 0 1.3 3.3 1.3 17.5 0 15-.2 17.5-1.5 17.5-1 0-1.5-1-1.5-3.1v-3.2l-2.8 2.7c-4 3.8-9.2 5.2-13.7 3.8Zm100.8-.3c-4.2-1.2-6.3-4.3-6.3-9.4 0-6.2 4-9 14-10.1a20 20 0 0 0 8.3-2.4c1.8-1.4 2-2.2 1.1-5-.7-2.6-1.8-3.7-4.7-4.8-5.3-2-11.4-.2-13 4-1.4 3.5-5.2 4.2-4.1.6 2.5-8.3 16.8-11.5 23.1-5.2 2.2 2.2 2.3 3.1 2.3 14.4 0 10.7.3 12.3 2 14 2.6 2.6 2.6 4 .1 4-2.3 0-5-2.5-5-4.7 0-1.2-.7-1-2.9 1-2.5 2.5-8 4.9-10.7 4.7l-4.2-1zm12.7-4.7a12 12 0 0 0 5-10.5c0-3.1-.3-3.7-1.7-3.3l-7.5 1.6c-9.8 1.7-13 4.7-10.7 10 2 5.1 9.5 6.2 15 2.2zm-611-12.7c0-16.8.1-17.5 2-17.5 1.6 0 2 .7 2 3V49l2.9-2.9c3.5-3.5 8.4-4.5 13.6-2.8 6.3 2 7.5 5.5 7.5 21.6 0 12.6 0 13.2-2 13.2-1.9 0-2-.6-2-13.3 0-11.9-.2-13.7-2-16-2.6-3.3-6.8-4.2-11.3-2.3-5.5 2.3-6.7 5.6-6.7 19.6 0 11.4 0 12-2 12-1.9 0-2-.6-2-17.5zm72 0c0-14.8.3-17.5 1.5-17.5 1.1 0 1.5 1.2 1.5 4v4l3.3-3.5c1.9-2 4.6-3.7 6.5-4 2.8-.6 3.2-.4 3.2 1.4 0 1.5-.6 2.1-2 2.1-1.1 0-3.3.7-4.9 1.5-4.3 2.2-6 7.8-6 19.6 0 8.2-.3 10-1.6 10-1.2 0-1.5-2.7-1.5-17.6Zm56-6.5c0-23.3 0-24 2-24s2 .7 2 24 0 24-2 24-2-.6-2-24zm13 6.5c0-14.8.3-17.5 1.5-17.5s1.5 2.7 1.5 17.5-.2 17.5-1.5 17.5-1.5-2.6-1.5-17.5zM435 76.7c-1.8-1.2-2-3-2.3-16l-.3-14.6h-3c-1.9 0-2.9-.5-2.9-1.5s1-1.5 3-1.5c3 0 3 0 3-5 0-4.3.3-5 2-5s2 .7 2 5v5h3.5c2.5 0 3.5.5 3.5 1.5s-1 1.5-3.5 1.5h-3.5v13.3c0 14.1.5 15.7 4.7 15.7 1.4 0 2.3.6 2.3 1.5 0 2-5.9 2-8.5.1zm55 0c-1.8-1.2-2-3-2.3-16l-.3-14.6h-3c-1.9 0-2.9-.5-2.9-1.5s1-1.5 3-1.5c3 0 3 0 3-5 0-4.3.3-5 2-5s2 .7 2 5v5h3.5c2.5 0 3.5.5 3.5 1.5s-1 1.5-3.5 1.5h-3.5v13.3c0 14.1.5 15.7 4.7 15.7 1.4 0 2.3.6 2.3 1.5 0 2-5.9 2-8.5.1zm214 .3c-1.4-1-1.7-3.6-1.9-15.8l-.3-14.5-2.7-.3c-3.9-.4-3.6-3.2.2-3.2 3 0 3 0 3-5 0-3.7.4-5 1.5-5s1.5 1.3 1.5 5v5h3.5c2.5 0 3.5.5 3.5 1.5s-1 1.5-3.5 1.5h-3.5v13.3c0 14.1.5 15.7 4.7 15.7 1.4 0 2.3.6 2.3 1.5 0 2-5.8 2.1-8.3.3zm50.4-23c0-23.3 0-24 2-24s2 .7 2 24 0 24-2 24-2-.6-2-24zm49 6.5c0-14.8.3-17.5 1.5-17.5 1 0 1.5 1 1.5 3.1v3.1l3.5-3c4.2-3.7 8.1-4.6 13.4-3.2 6.3 1.7 7.1 4.2 7.1 21 0 11.5-.2 14-1.4 14-1.1 0-1.5-2.7-1.7-13.9-.3-11.9-.6-14.2-2.2-16-2.7-2.9-7.7-3.6-11.5-1.6-5.6 2.8-6.5 5.5-7 19.2-.3 9.6-.7 12.3-1.8 12.3s-1.4-3.3-1.4-17.5Zm-651.2-4a132 132 0 0 0-6-13.7c-3.7-7.5-5.8-10.7-7-10.7-1 0-1.8-.8-1.8-2 0-1.1-.9-2.2-2.2-2.6-1.2-.4-3.7-1.8-5.5-3.1a58.8 58.8 0 0 0-8.5-4.9l-5.3-2.4h9.5a31 31 0 0 1 12.2 1.4c2.5 1.3 2.8 1.2 3.3-.5.5-1.6 1-1.7 3-.8 1.6.7 2.9.7 4.3 0 4.7-2.5 6.8 0 4.2 4.9-.7 1.3-.6 2.5.3 4 1 1.7 1 2.2-.5 3-1.6 1-1.6 1.3-.2 4 1.1 2.3 1.4 5.7 1.2 14.7-.2 8-.5 10.8-1 8.7zm-1.7-13c-2.6-9.6-4.7-14.5-6-14.5-2.2 0-.9 6.3 3 13.5 2.1 4.2 4 8.4 4 9.3 0 1 .3 1.2.6.5.3-.6-.5-4.6-1.6-8.8zm-8-15.7c0-.5-.8-.7-1.6-.4-1 .4-1.8.6-2.1.6-.3 0-.2.5.1 1 .7 1.2 3.5.2 3.5-1.2Zm7.8-.9c-2.2-1.3-3.2-1-1.9.6.7.8 1.7 1.2 2.3.9.6-.4.4-1-.4-1.5zm-9.9-.9c2.1-1.4.5-2.4-9.3-5.5-7.5-2.4-12.6-3.3-7.9-1.4 1.3.5 4.2 2.2 6.5 3.8 6.3 4.2 8.2 4.8 10.7 3.1zm5-.5c0-1.4-2.2-1.2-2.7.4-.3.8.1 1.2 1.2 1 .9-.2 1.6-.8 1.6-1.4zm-2.4-6.2c-1-1-1.6.4-.9 2.3.7 1.8.8 1.9 1.1.1.2-1 .1-2-.2-2.4zm6.7 1.2c1.2-1.6 1.4-2.5.6-2.5-1.4 0-4.9 3-4.9 4.2 0 1.7 2.6.7 4.3-1.7zm-107.6 36A57 57 0 0 1 43 34c1.5-3.8 1.5-4.2 0-5-1.4-.8-1.5-1.3-.6-2.5 1-1.1 1-2.3 0-5.4-.8-2.2-1-4.3-.7-4.6.3-.4 2.4 0 4.6.6 3.1 1 4.3 1 5.4.1 1.2-1 1.7-.8 2.5.6.8 1.5 1.3 1.6 3.6.5a48 48 0 0 1 11.8-1.1H79L75 19c-2.3 1-6.6 3.4-9.4 5.4-3 2-6 3.6-6.7 3.6-.7 0-1.4 1-1.4 2 0 1.4-.6 2-2 2-1.1 0-2 .7-2 1.7a27 27 0 0 1-3.2 7.2c-1.7 3-4.1 8-5.3 10.9-1.2 2.9-2.4 5-2.8 4.6zM52.4 32c0-1.9-1.7-3.6-2.6-2.7-.9 1-5.2 14.4-5.9 18.4-.5 3.2.1 2.3 4-5 2.5-5 4.5-9.7 4.5-10.7Zm3.2-4.2c-1.7-1.7-2.6 0-1 1.8.8 1.2 1.4 1.3 1.7.5.2-.7-.1-1.7-.7-2.3zM48 26.4c-.2-.2-1.4-.1-2.6.3-1.7.5-1.9.9-.9 1.5 1.3.8 4.5-.8 3.5-1.8zm4.4-.8c0-.8-.6-1.5-1.5-1.5s-1.5.7-1.5 1.5.7 1.5 1.5 1.5 1.5-.6 1.5-1.5zm15.5-4c5.5-3.3 5.7-3.6 2.5-3a45.2 45.2 0 0 0-15.7 6.2c-.5 1.5 2.6 2.2 5.2 1.3 1.1-.4 4.7-2.4 8-4.5zm-18.6-.2c-.4-1.7-4.9-4.6-5.7-3.7-.6.6 4 5.4 5 5.4.6 0 .8-.7.7-1.7zm4.4-2c-.5-1.4-.7-1.3-1.4.3-1.1 3-1 3.8.6 2.5.8-.7 1.1-2 .8-2.8zM418.4 33c0-2 .5-3 1.5-3s1.5 1 1.5 3-.5 3-1.5 3-1.5-1-1.5-3z" fill="currentColor"/></svg>